<?xml version="1.0" standalone="no"?>
<!DOCTYPE svg PUBLIC "-//W3C//DTD SVG 20010904//EN"
 "http://www.w3.org/TR/2001/REC-SVG-20010904/DTD/svg10.dtd">
<svg version="1.0" xmlns="http://www.w3.org/2000/svg"
 width="1536.000000pt" height="1536.000000pt" viewBox="0 0 1536.000000 1536.000000"
 preserveAspectRatio="xMidYMid meet">
<metadata>
Created by potrace 1.11, written by Peter Selinger 2001-2013
</metadata>
<g transform="translate(0.000000,1536.000000) scale(0.100000,-0.100000)"
fill="#000000" stroke="none">
<path d="M0 7680 l0 -7680 7680 0 7680 0 0 7680 0 7680 -7680 0 -7680 0 0
-7680z m10510 2281 c294 -33 558 -130 809 -294 126 -84 308 -261 393 -382 131
-191 208 -382 254 -640 26 -142 26 -502 0 -630 -57 -284 -168 -503 -353 -695
-203 -212 -445 -340 -758 -401 -102 -20 -352 -17 -435 5 -36 10 -75 20 -87 23
-12 3 -27 11 -33 18 -8 10 4 14 52 19 226 25 435 121 565 260 112 119 167 233
195 401 15 91 9 321 -11 420 -54 272 -203 546 -411 756 -162 164 -321 263
-498 311 -120 32 -333 36 -487 9 -273 -49 -526 -161 -826 -366 -112 -77 -294
-222 -343 -274 -17 -17 -34 -31 -40 -31 -14 0 -496 482 -496 496 0 28 389 390
558 518 144 110 416 268 542 316 19 7 51 19 70 27 161 64 363 112 580 138 125
15 617 13 760 -4z m-4560 -57 c69 -8 143 -18 165 -23 22 -5 76 -17 120 -26
209 -43 476 -141 720 -265 401 -202 733 -456 1079 -828 96 -103 235 -247 310
-321 74 -74 133 -138 130 -143 -3 -4 -172 -8 -376 -8 l-370 0 -56 62 c-425
467 -679 695 -1029 922 -177 114 -438 241 -628 304 -283 95 -440 124 -771 143
-277 17 -564 -3 -759 -51 -65 -16 -64 -11 4 21 93 44 338 125 487 159 113 27
171 37 314 56 183 25 441 25 660 -2z m-610 -284 c769 -79 1400 -431 2065
-1149 77 -83 142 -156 143 -161 3 -7 -263 -10 -767 -10 l-770 0 -123 59 c-216
103 -395 158 -608 186 -172 22 -235 20 -445 -17 -394 -68 -788 -384 -976 -783
-56 -118 -103 -278 -120 -402 -26 -195 -2 -468 61 -693 53 -188 150 -412 255
-584 25 -41 45 -77 45 -81 0 -7 -41 19 -95 60 -453 343 -755 811 -860 1329
-40 196 -48 300 -42 520 9 326 52 513 177 772 170 350 430 611 820 821 161 86
263 112 532 133 73 5 156 12 183 14 82 6 412 -2 525 -14z m6445 -179 c276
-190 483 -405 630 -656 47 -79 65 -115 121 -240 86 -194 135 -467 135 -765 0
-314 -42 -560 -148 -880 -70 -210 -91 -248 -166 -297 -163 -107 -413 -210
-639 -262 -116 -27 -138 -31 -233 -45 -214 -33 -309 -39 -555 -39 -265 -1
-412 11 -589 45 -446 84 -903 327 -1408 746 -56 46 -104 91 -107 98 -5 12 70
14 468 14 l472 0 55 -41 c64 -48 209 -138 259 -161 125 -58 158 -71 210 -88
154 -49 249 -63 425 -63 149 0 183 3 280 27 528 127 934 551 1068 1116 36 148
41 200 41 390 0 250 -23 378 -109 605 -67 176 -190 386 -299 513 -45 52 -59
81 -33 66 6 -4 61 -41 122 -83z m-1635 -411 c142 -35 288 -114 410 -222 113
-99 252 -280 337 -438 76 -140 96 -181 90 -186 -3 -3 -23 11 -44 31 -52 50
-156 106 -293 159 -138 54 -203 71 -333 87 -144 17 -315 -8 -482 -71 -11 -4
-63 -28 -115 -54 l-95 -46 -481 0 -481 0 -47 38 c-25 20 -46 42 -46 49 0 7 46
53 103 102 384 334 707 506 1067 567 107 18 304 11 410 -16z m-5357 -683
c-188 -196 -284 -430 -308 -752 -7 -99 8 -298 31 -413 76 -373 320 -698 648
-864 97 -49 254 -101 357 -118 99 -16 356 -8 459 15 373 82 767 317 1193 712
37 35 72 63 77 63 5 0 57 -62 116 -137 125 -161 166 -209 332 -395 67 -76 122
-142 122 -147 0 -33 -393 -352 -595 -483 -160 -103 -187 -119 -340 -198 -396
-203 -779 -292 -1200 -277 -609 22 -1150 260 -1442 634 -224 288 -351 611
-393 1008 -25 239 40 550 162 775 121 221 322 412 574 544 67 35 258 114 278
115 5 1 -27 -37 -71 -82z m896 -435 c40 -20 70 -57 73 -92 4 -38 -24 -31 -34
8 -13 51 -59 74 -136 70 -74 -5 -103 -26 -104 -78 -2 -48 34 -74 129 -95 43
-9 90 -24 105 -31 38 -20 62 -68 54 -112 -10 -67 -64 -102 -158 -102 -98 0
-159 41 -174 118 -10 49 18 41 36 -10 19 -53 59 -78 128 -79 65 -2 109 16 127
52 21 40 19 57 -13 89 -21 21 -48 32 -108 45 -100 22 -130 37 -150 76 -28 55
-4 111 61 147 31 18 125 14 164 -6z m4139 -15 c128 -84 120 -318 -13 -395 -34
-19 -52 -22 -112 -20 -62 3 -76 7 -110 34 -58 46 -83 104 -83 189 1 104 34
164 115 209 48 26 152 18 203 -17z m-3220 11 c-3 -9 -31 -14 -81 -16 l-77 -3
0 -199 c0 -171 -2 -200 -15 -200 -13 0 -15 29 -15 200 l0 200 -75 0 c-60 0
-75 3 -75 15 0 13 26 15 171 15 132 0 170 -3 167 -12z m552 -143 c0 -171 9
-211 54 -240 33 -22 113 -22 153 -2 51 27 63 75 63 247 0 130 2 150 16 150 14
0 15 -20 12 -172 -3 -162 -4 -175 -26 -206 -32 -44 -71 -62 -137 -62 -77 0
-119 22 -145 74 -18 37 -20 62 -20 204 0 137 2 162 15 162 13 0 15 -24 15
-155z m1097 144 c73 -27 113 -100 113 -204 0 -86 -23 -141 -76 -181 -35 -27
-44 -29 -151 -32 l-113 -4 0 216 0 216 99 0 c55 0 112 -5 128 -11z m703 -204
c0 -184 -2 -215 -15 -215 -13 0 -15 31 -15 215 0 184 2 215 15 215 13 0 15
-31 15 -215z m-4390 -137 c0 -20 108 -155 185 -233 368 -368 804 -439 1303
-213 l63 28 501 0 c501 0 502 0 525 -22 13 -12 23 -27 23 -33 0 -13 -128 -126
-290 -256 -493 -396 -929 -580 -1274 -539 -448 54 -842 390 -991 845 -50 152
-86 435 -55 435 6 0 10 -5 10 -12z m4148 -497 c621 -556 1215 -835 1949 -915
242 -27 616 -15 823 25 95 19 284 60 315 70 71 21 252 80 270 88 140 61 196
84 200 79 10 -10 -152 -203 -256 -303 -284 -274 -639 -477 -1034 -592 -496
-144 -1038 -149 -1545 -14 -123 33 -327 102 -415 141 -523 231 -945 545 -1356
1010 -120 136 -379 470 -379 489 0 8 202 11 665 11 l664 0 99 -89z"/>
<path d="M9632 7883 c-87 -43 -121 -203 -62 -297 43 -71 145 -100 217 -62 134
69 136 292 2 361 -37 20 -116 19 -157 -2z"/>
<path d="M8060 7705 l0 -185 83 0 c102 0 142 18 174 80 31 59 32 149 1 210
-32 62 -71 80 -175 80 l-83 0 0 -185z"/>
</g>
</svg>
